<?xml version="1.0" encoding="UTF-8" standalone="no"?>
<!-- Created with Inkscape (http://www.inkscape.org/) -->
<svg
   xmlns:dc="http://purl.org/dc/elements/1.1/"
   xmlns:cc="http://creativecommons.org/ns#"
   xmlns:rdf="http://www.w3.org/1999/02/22-rdf-syntax-ns#"
   xmlns:svg="http://www.w3.org/2000/svg"
   xmlns="http://www.w3.org/2000/svg"
   xmlns:sodipodi="http://sodipodi.sourceforge.net/DTD/sodipodi-0.dtd"
   xmlns:inkscape="http://www.inkscape.org/namespaces/inkscape"
   width="512"
   height="512"
   id="svg2"
   sodipodi:version="0.32"
   inkscape:version="0.46"
   version="1.0"
   inkscape:export-filename="C:\Users\Jan\Documents\Studium\GP\textures\x.png"
   inkscape:export-xdpi="90"
   inkscape:export-ydpi="90"
   sodipodi:docname="tower.svg"
   inkscape:output_extension="org.inkscape.output.svg.inkscape">
  <defs
     id="defs4">
    <linearGradient
       id="linearGradient3168">
      <stop
         style="stop-color:#bfbfbf;stop-opacity:1;"
         offset="0"
         id="stop3170" />
      <stop
         style="stop-color:#ffffff;stop-opacity:1;"
         offset="1"
         id="stop3172" />
    </linearGradient>
    <inkscape:perspective
       sodipodi:type="inkscape:persp3d"
       inkscape:vp_x="0 : 526.18109 : 1"
       inkscape:vp_y="0 : 1000 : 0"
       inkscape:vp_z="744.09448 : 526.18109 : 1"
       inkscape:persp3d-origin="372.04724 : 350.78739 : 1"
       id="perspective10" />
  </defs>
  <sodipodi:namedview
     id="base"
     pagecolor="#ffffff"
     bordercolor="#666666"
     borderopacity="1.0"
     inkscape:pageopacity="0.0"
     inkscape:pageshadow="2"
     inkscape:zoom="0.74991989"
     inkscape:cx="164.11984"
     inkscape:cy="210.10849"
     inkscape:document-units="px"
     inkscape:current-layer="layer1"
     showgrid="false"
     inkscape:window-width="842"
     inkscape:window-height="669"
     inkscape:window-x="161"
     inkscape:window-y="95" />
  <metadata
     id="metadata7">
    <rdf:RDF>
      <cc:Work
         rdf:about="">
        <dc:format>image/svg+xml</dc:format>
        <dc:type
           rdf:resource="http://purl.org/dc/dcmitype/StillImage" />
      </cc:Work>
    </rdf:RDF>
  </metadata>
  <g
     inkscape:label="Ebene 1"
     inkscape:groupmode="layer"
     id="layer1">
    <path
       style="opacity:1;fill:#808080;fill-opacity:1;stroke:#000000;stroke-width:5;stroke-linecap:round;stroke-linejoin:miter;stroke-miterlimit:4;stroke-dasharray:none;stroke-dashoffset:0;stroke-opacity:1"
       d="M 90.6875 78.625 L 90.6875 134.625 L 130.6875 134.625 L 130.6875 494.65625 L 390.71875 494.65625 L 390.71875 134.625 L 430.71875 134.625 L 430.71875 78.625 L 413.34375 78.625 L 413.34375 100.625 L 390.6875 100.625 L 390.6875 78.625 L 373.34375 78.625 L 373.34375 100.625 L 350.6875 100.625 L 350.6875 78.625 L 333.34375 78.625 L 333.34375 100.625 L 310.6875 100.625 L 310.6875 78.625 L 293.34375 78.625 L 293.34375 100.625 L 270.6875 100.625 L 270.6875 78.625 L 253.34375 78.625 L 253.34375 100.625 L 230.6875 100.625 L 230.6875 78.625 L 213.34375 78.625 L 213.34375 100.625 L 190.6875 100.625 L 190.6875 78.625 L 173.34375 78.625 L 173.34375 100.625 L 150.6875 100.625 L 150.6875 78.625 L 133.34375 78.625 L 133.34375 100.625 L 110.6875 100.625 L 110.6875 78.625 L 90.6875 78.625 z "
       id="rect3249" />
  </g>
</svg>
